<?xml version="1.0" encoding="utf-8"?>
<!-- Generator: Adobe Illustrator 27.0.0, SVG Export Plug-In . SVG Version: 6.00 Build 0)  -->
<svg version="1.1" id="Layer_1" xmlns="http://www.w3.org/2000/svg" xmlns:xlink="http://www.w3.org/1999/xlink" x="0px" y="0px"
	 viewBox="0 0 47.8 47.8" style="enable-background:new 0 0 47.8 47.8;" xml:space="preserve">
<style type="text/css">
	.st0{fill:none;stroke:#FFFFFF;stroke-width:2;stroke-miterlimit:10;}
	.st1{fill:none;stroke:#FFFFFF;stroke-width:1.7319;stroke-miterlimit:10;}
	.st2{fill:#FFFFFF;}
</style>
<g>
	<path class="st0" d="M12.8,46.8c3.4,0,6.4-1.9,7.9-4.7l4.1-3.2c1.9-1.5,4.1-2.6,6.5-3.2c0.9-0.2,1.5-1,1.5-1.9c0-1.1-0.9-2-2-2
		c-0.2,0-0.3,0-0.5,0.1c-2.8,0.7-5.5,1.7-8.1,2.9c-2.2,1.1-4.9,1.2-7.2,0.2c-1.6-0.7-2.7-2.1-3-3.8l-0.3-7.4l2.9-1.8l3.3,1.6
		c0.3,0.1,0.6,0.2,0.9,0.2c1.1,0,2-0.9,2-2c0-0.8-0.5-1.5-1.1-1.8v0l-4-2c-0.3-0.1-0.6-0.2-0.9-0.2c-0.2,0-0.4,0-0.6,0.1l-6,2
		c-0.7,0.2-1.2,0.9-1.3,1.6L4.5,38.2c-0.4,3.2-1.7,6.1-3.8,8.6"/>
	<path class="st0" d="M46.8,0.8c-2.5,2-5.4,3.3-8.6,3.8L21.5,6.8c-0.8,0.1-1.4,0.6-1.6,1.3l-2,6c-0.1,0.2-0.1,0.4-0.1,0.6
		c0,0.3,0.1,0.6,0.2,0.9l2,4h0c0.3,0.7,1,1.1,1.8,1.1c1.1,0,2-0.9,2-2c0-0.3-0.1-0.6-0.2-0.9l-1.6-3.3l1.8-2.9l7.4,0.3
		c1.7,0.2,3.2,1.4,3.8,3c1,2.3,0.9,4.9-0.2,7.2c-1.3,2.6-2.2,5.3-2.9,8.1c0,0.2-0.1,0.3-0.1,0.5c0,1.1,0.9,2,2,2
		c0.9,0,1.7-0.7,1.9-1.5c0.6-2.4,1.7-4.6,3.2-6.5l3.2-4.1c2.8-1.5,4.7-4.5,4.7-7.9"/>
</g>
</svg>
