<?xml version="1.0" encoding="utf-8"?>
<!-- Generator: Adobe Illustrator 27.0.0, SVG Export Plug-In . SVG Version: 6.00 Build 0)  -->
<svg version="1.1" id="Layer_1" xmlns="http://www.w3.org/2000/svg" xmlns:xlink="http://www.w3.org/1999/xlink" x="0px" y="0px"
	 viewBox="0 0 47.8 47.8" style="enable-background:new 0 0 47.8 47.8;" xml:space="preserve">
<style type="text/css">
	.st0{fill:none;stroke:#FFFFFF;stroke-width:2;stroke-miterlimit:10;}
	.st1{fill:none;stroke:#FFFFFF;stroke-width:1.7319;stroke-miterlimit:10;}
	.st2{fill:#FFFFFF;}
</style>
<g>
	<g>
		<g>
			<g>
				<g>
					<g>
						<g>
							<polygon class="st1" points="46.8,21.8 40.1,16.1 40.1,6 33.2,6 33.2,10.3 23.9,2.7 1,21.8 1,24.1 6.7,24.1 6.7,45 41.1,45
								41.1,24.1 46.8,24.1 							"/>
						</g>
					</g>
					<polyline class="st1" points="6.7,24.1 23.9,10.1 41.1,24.1 					"/>
				</g>
			</g>
		</g>
	</g>
	<g>
		<g>
			<g>
				<g>
					<path class="st1" d="M31.7,25.1L31.7,25.1c-1.9-1.9-4.9-1.9-6.8,0l-1.1,1.1l-1.1-1.1c-1.9-1.9-4.9-1.9-6.8,0l0,0
						c-1.9,1.9-1.9,4.9,0,6.8l7.9,7.9l0,0l0,0l7.9-7.9C33.6,30,33.6,27,31.7,25.1z"/>
				</g>
			</g>
		</g>
	</g>
</g>
</svg>
