<?xml version="1.0" encoding="utf-8"?>
<!-- Generator: Adobe Illustrator 27.0.0, SVG Export Plug-In . SVG Version: 6.00 Build 0)  -->
<svg version="1.1" id="Layer_1" xmlns="http://www.w3.org/2000/svg" xmlns:xlink="http://www.w3.org/1999/xlink" x="0px" y="0px"
	 viewBox="0 0 47.8 47.8" style="enable-background:new 0 0 47.8 47.8;" xml:space="preserve">
<style type="text/css">
	.st0{fill:none;stroke:#FFFFFF;stroke-width:2;stroke-miterlimit:10;}
	.st1{fill:none;stroke:#FFFFFF;stroke-width:1.7319;stroke-miterlimit:10;}
	.st2{fill:#FFFFFF;}
</style>
<g>
	<polygon class="st2" points="21.5,6 24.5,6 24.5,8.7 26,10.2 26,4.4 19.8,4.4 	"/>
	<g>
		<polygon class="st2" points="19.6,24.8 19.6,18.8 10.8,18.8 10.8,25.2 10.7,25.2 12.4,26.5 12.4,20.4 18,20.4 18,24.9 		"/>
		<path class="st2" d="M4.3,22.6c0.5,0,1.1,0.1,1.6,0.2v-6.9h-3L15.2,4.4l12.3,11.5h-3v7.9c0.5-0.3,1-0.4,1.6-0.6v-5.7h3.2v-2.1
			l-14-13.1l-14,13.1v2.1h3.2V22.6z"/>
	</g>
	<g>
		<path class="st2" d="M16,39.3c-1.1,0-2.2-0.4-3.1-1.1l-12-10.1c-0.5-0.4-0.7-1-0.6-1.6c0.1-0.6,0.4-1.1,1-1.4
			c2.5-1.2,5.4-0.8,7.6,0.9l6.3,4.9l-1,1.3l-6.3-4.9c-1.7-1.4-4-1.7-5.8-0.8c-0.1,0.1-0.1,0.1-0.1,0.2c0,0,0,0.1,0.1,0.2l12,10.1
			c0.7,0.6,1.5,0.8,2.4,0.8c7.1-0.5,12.9-0.5,17.4,0l-0.2,1.6c-4.5-0.5-10.1-0.5-17.2,0C16.2,39.3,16.1,39.3,16,39.3z"/>
	</g>
	<g>
		<path class="st2" d="M16.3,33.1c-0.7,0-1.4-0.3-2-0.7c-0.6-0.5-1-1.3-1.1-2.1c-0.1-1.7,1.1-3.2,2.8-3.3l5.9-0.5
			c1-0.1,2.2-0.4,3.3-1c4-2,9.4,0.2,13.1,3.3l-1,1.2c-3.1-2.7-8-4.8-11.3-3.1c-1.3,0.7-2.6,1.1-3.9,1.2l-5.9,0.5
			c-0.8,0.1-1.4,0.8-1.4,1.6c0,0.4,0.2,0.8,0.5,1c0.3,0.3,0.7,0.4,1.1,0.3l8.2-0.7l0.1,1.6l-8.2,0.7C16.4,33.1,16.4,33.1,16.3,33.1z
			"/>
	</g>
	<g>
		<path class="st2" d="M40.3,45.6l-6.2-2.7c-1.2-0.5-1.8-1.8-1.5-3c1.1-4.4,2.9-8.5,5.4-12.3c0.7-1.1,2.1-1.5,3.3-1l6.2,2.7
			L40.3,45.6z M40.2,27.9c-0.4,0-0.7,0.2-0.9,0.5c-2.4,3.6-4.2,7.6-5.2,11.8c-0.1,0.5,0.1,1,0.6,1.2l4.8,2.1l5.9-13.4L40.6,28
			C40.5,27.9,40.3,27.9,40.2,27.9z"/>
	</g>
</g>
</svg>
